<svg xmlns="http://www.w3.org/2000/svg" viewBox="0 0 234.01 210.01"><defs><style>.cls-1{fill:#c91673}.cls-2{fill:#b51468}</style></defs><g id="Layer_2" data-name="Layer 2"><g id="Layer_1-2" data-name="Layer 1"><path class="cls-1" d="M36.3 32.67 0 173.71 141.05 210l36.3-141zm81.51 138-78.47-20.19L59.53 72 138 92.2z"/><path class="cls-1" d="M93 0 56.67 141.05l141 36.3L234 36.3zm81.51 138L96 117.81l20.2-78.47 78.47 20.19z"/><path class="cls-2" d="m117.81 170.67 3.35-13.02 31.29 8.05-3.49 13.58-31.15-8.61z"/><path class="cls-2" d="m117.81 170.67 3.35-13.02 31.29 8.05-3.49 13.58-31.15-8.61zM70.17 88.59l3.43-13.01 31.29 8.06-3.58 13.55-31.14-8.6z"/></g></g></svg>