<svg xmlns="http://www.w3.org/2000/svg" viewBox="0 0 758.1 210.01"><defs><style>.cls-1{fill:#fff}.cls-2{fill:#ffe5e5}</style></defs><g id="Layer_2" data-name="Layer 2"><g id="Layer_1-2" data-name="Layer 1"><path class="cls-1" d="M36.3 32.67 0 173.71 141.05 210l36.3-141zm81.51 138-78.47-20.19L59.53 72 138 92.2z"/><path class="cls-1" d="M93 0 56.67 141.05l141 36.3L234 36.3zm81.51 138L96 117.81l20.2-78.47 78.47 20.19z"/><path class="cls-2" d="m117.81 170.67 3.35-13.02 31.29 8.05-3.49 13.58-31.15-8.61z"/><path class="cls-2" d="m117.81 170.67 3.35-13.02 31.29 8.05-3.49 13.58-31.15-8.61zM70.17 88.59l3.43-13.01 31.29 8.06-3.58 13.55-31.14-8.6z"/><text transform="translate(273.98 72)" style="font-size:12px;font-family:MyriadPro-Regular,Myriad Pro"> </text><path class="cls-1" d="M363 87.45q0 30.1-26.27 37.94l31.84 44.19h-26.1l-29.06-40.89h-27v40.89h-20.55V48h45.24q27.84 0 39.85 9.39T363 87.45zm-27.32 17.23q6.27-5.39 6.27-17.31T335.46 71q-6.43-4.44-23-4.44h-26.1v43.5H312q17.37.01 23.63-5.38zm125.41 52.46Q447.17 171 426.29 171t-34.8-13.83q-13.92-13.83-13.92-33.84t13.92-33.84q13.92-13.84 34.8-13.84t34.8 13.84Q475 103.29 475 123.3t-13.91 33.84zm-55.77-12q8.26 8.43 21 8.43t21-8.43q8.26-8.44 8.27-21.84t-8.27-21.84Q439 93 426.29 93t-21 8.44q-8.26 8.45-8.26 21.84t8.29 21.86zm139.11 24.44h-23L472.57 48h23L533 138.78 570.36 48h23zm146.16-37.76H618a21.09 21.09 0 0 0 9.23 16.27 32.34 32.34 0 0 0 19.48 6.18q17.4 0 26.45-11l11.14 12.18q-15 15.48-39 15.48-19.49 0-33.14-13t-13.66-34.8q0-21.83 13.92-34.71a46.73 46.73 0 0 1 32.8-12.88q18.87 0 32.1 11.4t13.22 31.41zM618 116.51h53.1q0-11.66-7.3-17.92t-18-6.26a30.81 30.81 0 0 0-19.23 6.52q-8.57 6.53-8.57 17.66zm139.06-21.23q-14.44 0-21.75 9.4T728 129.91v39.67h-19.49V77H728v18.63a40.43 40.43 0 0 1 12.79-14.27 30.85 30.85 0 0 1 17.14-5.74l.17 19.66z"/></g></g></svg>